<svg width="111" height="112" viewBox="0 0 111 112" fill="none" xmlns="http://www.w3.org/2000/svg">
<path fill-rule="evenodd" clip-rule="evenodd" d="M110.909 0H0V69.4444H6.93182V111.111H24.2614L27.7273 97.2222H83.1818L86.6477 111.111H103.977V69.4444H110.909V0ZM97.0455 27.7778H13.8636V55.5556H97.0455V27.7778ZM90.1136 76.3889C90.1136 80.2243 87.0103 83.3333 83.1818 83.3333C79.3534 83.3333 76.25 80.2243 76.25 76.3889C76.25 72.5535 79.3534 69.4444 83.1818 69.4444C87.0103 69.4444 90.1136 72.5535 90.1136 76.3889ZM27.7273 83.3333C31.5556 83.3333 34.6591 80.2243 34.6591 76.3889C34.6591 72.5535 31.5556 69.4444 27.7273 69.4444C23.899 69.4444 20.7955 72.5535 20.7955 76.3889C20.7955 80.2243 23.899 83.3333 27.7273 83.3333Z" fill="black"/>
</svg>
